<svg xmlns="http://www.w3.org/2000/svg" viewBox="0 0 500 500"><g id="freepik--Floor--inject-49"><ellipse cx="250.47" cy="363.75" rx="209.77" ry="121.11" style="fill:#f5f5f5"></ellipse></g><g id="freepik--Shadows--inject-49"><ellipse cx="217.1" cy="377.74" rx="49.24" ry="28.43" style="fill:#e0e0e0"></ellipse><ellipse cx="300.58" cy="398.15" rx="59.62" ry="34.42" style="fill:#e0e0e0"></ellipse></g><g id="freepik--Mailbox--inject-49"><path d="M234,366.86c0-2.5-1.64-5-4.94-6.89-6.59-3.81-17.28-3.81-23.87,0-3.3,1.9-4.95,4.4-4.95,6.89v7.71c0,2.5,1.65,5,4.95,6.9,6.59,3.8,17.28,3.8,23.87,0,3.3-1.91,4.94-4.4,4.94-6.9h0v-7.71Z" style="fill:#263238"></path><path d="M229.1,367.68c6.59,3.81,6.59,10,0,13.79s-17.28,3.8-23.87,0-6.6-10,0-13.79S222.51,363.88,229.1,367.68Z" style="fill:#37474f"></path><rect x="200.28" y="366.86" width="33.76" height="7.71" style="fill:#37474f"></rect><path d="M229.1,360c6.59,3.8,6.59,10,0,13.78s-17.28,3.81-23.87,0-6.6-10,0-13.78S222.51,356.16,229.1,360Z" style="fill:#455a64"></path><path d="M222.78,361.72c3.11,1.79,3.11,4.7,0,6.49a12.43,12.43,0,0,1-11.24,0c-3.1-1.79-3.1-4.7,0-6.49A12.43,12.43,0,0,1,222.78,361.72Z" style="fill:#263238"></path><rect x="209.21" y="219.41" width="15.9" height="145.56" style="fill:#263238"></rect><path d="M282.09,152.19h0l0-.11v0c-.15-.83-.33-1.67-.54-2.51a2.68,2.68,0,0,1,.07.27c-.13-.57-.28-1.14-.44-1.71.06.21.11.42.16.63-.16-.63-.34-1.25-.53-1.88.09.27.18.55.25.82-.1-.36-.21-.72-.32-1.08l-.18-.57,0-.08v.06a61.06,61.06,0,0,0-5.28-11.71c-.07-.13-.14-.26-.22-.39h0c-5.45-9.27-13.35-17.74-22.17-23l-.43-.26a40,40,0,0,0-8-3.54,24.74,24.74,0,0,0-7.16-1.15l-.84,0-.51,0c-.42,0-.83.08-1.23.14l-.37,0-.68.13c-.29.06-.58.13-.86.21l-.78.23s0,0-.05,0l-.78.28c-.26.11-.52.22-.76.34h0l-1.72,1,0,0-86.61,50,0,0-.07,0h0c-4.69,2.63-7.53,8-7.53,15.63v47.11l-32.59,18a20.81,20.81,0,0,0-.37,36.24h0a59.73,59.73,0,0,0,59.69,0L195,256.29h0l87.73-50.69V158.48A35.37,35.37,0,0,0,282.09,152.19Z" style="fill:#B0BEC5"></path><polygon points="140.61 217.78 140.61 165.15 196.33 133.29 201.35 181.95 140.61 217.78" style="fill:#B0BEC5"></polygon><polygon points="140.61 217.78 140.61 165.15 196.33 133.29 201.35 181.95 140.61 217.78" style="opacity:0.5"></polygon><polygon points="140.61 217.78 201.35 181.95 201.35 239.22 188.79 245.6 140.61 217.78" style="fill:#B0BEC5"></polygon><polygon points="140.61 217.78 201.35 181.95 201.35 239.22 188.79 245.6 140.61 217.78" style="opacity:0.30000000000000004"></polygon><path d="M282.1,152.19l-5.76,3.17-35.06,19.19L234.94,178l-43.82,24c-2.78-4.7-10-26.63-13.85-30.6a58,58,0,0,0-12.58-10c-5.5-3.18-10.65-4.69-15.1-4.69a15.37,15.37,0,0,0-7.52,1.79l86.62-50,0,0,1.72-1h0c.24-.12.5-.23.76-.34l.78-.28s0,0,.05,0l.78-.23c.28-.08.57-.15.86-.21l.68-.13.37,0c.4-.06.81-.11,1.23-.14l.51,0,.84,0a24.74,24.74,0,0,1,7.16,1.15,40,40,0,0,1,8,3.54l.43.26C267.35,119.57,279.37,136.88,282.1,152.19Z" style="fill:#B0BEC5"></path><path d="M142,158.56l-.07,0h0Z" style="fill:#B0BEC5"></path><g style="opacity:0.30000000000000004"><path d="M282.1,152.19l-5.76,3.17-35.06,19.19L234.94,178l-43.82,24c-2.78-4.7-10-26.63-13.85-30.6a58,58,0,0,0-12.58-10c-5.5-3.18-10.65-4.69-15.1-4.69a15.37,15.37,0,0,0-7.52,1.79l86.62-50,0,0,1.72-1h0c.24-.12.5-.23.76-.34l.78-.28s0,0,.05,0l.78-.23c.28-.08.57-.15.86-.21l.68-.13.37,0c.4-.06.81-.11,1.23-.14l.51,0,.84,0a24.74,24.74,0,0,1,7.16,1.15,40,40,0,0,1,8,3.54l.43.26C267.35,119.57,279.37,136.88,282.1,152.19Z"></path><path d="M142,158.56l-.07,0h0Z"></path></g><path d="M275,134h0c.08.12.16.25.23.38C275.19,134.22,275.12,134.09,275,134Z" style="fill:#B0BEC5"></path><path d="M279.65,143.5a48.74,48.74,0,0,1,2.45,8.69l-5.76,3.17-35.06,19.19L234.94,178l-43.82,24h0L195,256.29l87.73-50.69V158.48A42.72,42.72,0,0,0,279.65,143.5Z" style="fill:#B0BEC5"></path><path d="M278.35,140.36c-.37-.82-.76-1.65-1.17-2.47C277.59,138.71,278,139.54,278.35,140.36Z" style="fill:#B0BEC5"></path><path d="M275.66,135c.42.76.84,1.52,1.23,2.29C276.5,136.56,276.09,135.8,275.66,135Z" style="fill:#B0BEC5"></path><path d="M279.62,143.41c-.35-.9-.72-1.79-1.11-2.68C278.9,141.62,279.27,142.51,279.62,143.41Z" style="fill:#B0BEC5"></path><g style="opacity:0.5"><path d="M275,134h0c.08.12.16.25.23.38C275.19,134.22,275.12,134.09,275,134Z"></path><path d="M279.65,143.5a48.74,48.74,0,0,1,2.45,8.69l-5.76,3.17-35.06,19.19L234.94,178l-43.82,24h0L195,256.29l87.73-50.69V158.48A42.72,42.72,0,0,0,279.65,143.5Z"></path><path d="M278.35,140.36c-.37-.82-.76-1.65-1.17-2.47C277.59,138.71,278,139.54,278.35,140.36Z"></path><path d="M275.66,135c.42.76.84,1.52,1.23,2.29C276.5,136.56,276.09,135.8,275.66,135Z"></path><path d="M279.62,143.41c-.35-.9-.72-1.79-1.11-2.68C278.9,141.62,279.27,142.51,279.62,143.41Z"></path></g><path d="M149.59,162.93c3.49,0,7.65,1.33,12,3.86,14.73,8.5,27.18,27.91,27.18,42.39V245.6l-48.18-27.82V174.23c0-9.34,4.88-11.3,9-11.3m0-6.18c-9.06,0-15.15,6.27-15.15,17.48v47.11l60.52,35V209.18c0-16.72-13.55-38.09-30.26-47.74h0c-5.5-3.17-10.67-4.69-15.11-4.69Z" style="fill:#B0BEC5"></path><path d="M134.44,221.34l-32.59,18a20.81,20.81,0,0,0-.37,36.24h0a59.73,59.73,0,0,0,59.69,0L195,256.29Z" style="fill:#B0BEC5"></path><path d="M134.44,221.34l-32.59,18a20.81,20.81,0,0,0-.37,36.24h0a59.73,59.73,0,0,0,59.69,0L195,256.29Z" style="fill:#fff;opacity:0.2"></path><polygon points="215.15 241.94 208.35 245.86 208.35 180.21 215.15 176.28 215.15 241.94" style="fill:#e0e0e0"></polygon><polygon points="227.99 181.99 208.35 193.32 208.35 180.21 227.99 168.87 227.99 181.99" style="fill:#e0e0e0"></polygon><path d="M218.08,239.63a14.1,14.1,0,0,1-6.38,11.05c-3.53,2-6.39.39-6.39-3.68A14.09,14.09,0,0,1,211.7,236C215.22,233.91,218.08,235.56,218.08,239.63Z" style="fill:#B0BEC5"></path><path d="M218.08,239.63a14.1,14.1,0,0,1-6.38,11.05c-3.53,2-6.39.39-6.39-3.68A14.09,14.09,0,0,1,211.7,236C215.22,233.91,218.08,235.56,218.08,239.63Z" style="opacity:0.2"></path><path d="M220.2,240.86a14.09,14.09,0,0,1-6.38,11c-3.52,2-6.38.38-6.38-3.69a14.13,14.13,0,0,1,6.38-11.05C217.35,235.14,220.2,236.79,220.2,240.86Z" style="fill:#B0BEC5"></path></g><g id="freepik--Plant--inject-49"><path d="M362.72,349,374,355.54s-5.7-18.19-2.54-36.48c1.19-6.9,3.71-10.33,4.59-12.18s7.7-13.25,1.7-18.51-20.05,5.2-19.42,33.38A109.63,109.63,0,0,0,362.72,349Z" style="fill:#B0BEC5"></path><path d="M362.72,349,374,355.54s-5.7-18.19-2.54-36.48c1.19-6.9,3.71-10.33,4.59-12.18s7.7-13.25,1.7-18.51-20.05,5.2-19.42,33.38A109.63,109.63,0,0,0,362.72,349Z" style="opacity:0.30000000000000004"></path><path d="M368,352.54a.52.52,0,0,1-.47-.33c0-.12-4.31-12-4.09-31s10.28-29.32,10.38-29.42a.5.5,0,1,1,.71.71c-.1.1-9.86,10-10.08,28.72s4,30.51,4,30.63a.5.5,0,0,1-.3.64A.39.39,0,0,1,368,352.54Z" style="fill:#fff"></path><path d="M371.47,354.11l18.65,11s8.54-1.26,7.9-9.3-4.12-9.94.2-13.47,5.44-3.76,5.23-7.23-2.53-5-3.63-6.34-4.15-4.25-2-8.43,5.06-8.21.74-10.12c-2.59-1.14-6.93.29-9.8,3.34s-5.26,5.26-8,6-8.41.76-8.22,5.46,1.41,6.32.27,8.4C370.68,337.29,361.51,339.41,371.47,354.11Z" style="fill:#B0BEC5"></path><path d="M379.07,359.08a.5.5,0,0,1-.5-.47c0-.28-2.06-28.08,17.26-46.34a.51.51,0,1,1,.7.73c-19,17.92-17,45.26-17,45.53a.51.51,0,0,1-.46.55Z" style="fill:#fff"></path><path d="M382.41,335.24a.5.5,0,0,1-.5-.46,15.88,15.88,0,0,0-5.67-11.1.5.5,0,1,1,.59-.81,16.58,16.58,0,0,1,6.09,11.83.5.5,0,0,1-.47.54Z" style="fill:#fff"></path><path d="M381,340a.48.48,0,0,1-.34-.13.5.5,0,0,1,0-.71c.2-.23,5.06-5.48,16.3-3.94a.52.52,0,0,1,.44.57.51.51,0,0,1-.57.43c-10.72-1.47-15.37,3.56-15.42,3.61A.51.51,0,0,1,381,340Z" style="fill:#fff"></path></g><g id="freepik--paper-plane--inject-49"><path d="M157.35,190.53c-.89,0-1.79,0-2.67-.11a.91.91,0,0,1-.84-1,.93.93,0,0,1,1-.84,26.65,26.65,0,0,0,3.57.09.94.94,0,0,1,.95.89.92.92,0,0,1-.88.95C158.09,190.53,157.72,190.53,157.35,190.53Zm4.74-.38a.92.92,0,0,1-.15-1.83,26.53,26.53,0,0,0,3.47-.81.92.92,0,0,1,.53,1.76,28.07,28.07,0,0,1-3.7.87Zm-11-.26h-.18a34.57,34.57,0,0,1-3.66-1,.94.94,0,0,1-.59-1.17.93.93,0,0,1,1.17-.58,30.71,30.71,0,0,0,3.45.92.91.91,0,0,1,.71,1.09A.92.92,0,0,1,151.11,189.89Zm18-1.91a.92.92,0,0,1-.4-1.75l.64-.31a.92.92,0,1,1,.83,1.64l-.68.34A.91.91,0,0,1,169.11,188Zm-25-.39a.92.92,0,0,1-.39-.09,34.41,34.41,0,0,1-3.33-1.78.92.92,0,1,1,1-1.57,33,33,0,0,0,3.16,1.68.93.93,0,0,1-.39,1.76Zm-6.3-3.8a1,1,0,0,1-.55-.18c-1-.74-2-1.55-2.9-2.41a.92.92,0,1,1,1.24-1.36c.9.82,1.83,1.59,2.77,2.3a.92.92,0,0,1-.56,1.65Zm-5.43-4.95a.91.91,0,0,1-.68-.3c-.83-.91-1.65-1.88-2.41-2.88a.92.92,0,0,1,1.46-1.12c.73,1,1.51,1.88,2.31,2.76a.92.92,0,0,1-.06,1.3A.93.93,0,0,1,132.41,178.84ZM127.93,173a.9.9,0,0,1-.77-.43c-.4-.62-.79-1.26-1.16-1.9-.25-.44-.5-.89-.74-1.34a.92.92,0,0,1,1.62-.86c.23.43.47.86.71,1.28.36.62.73,1.23,1.12,1.83a.93.93,0,0,1-.78,1.42Zm-3.44-6.5a.92.92,0,0,1-.85-.56c-.49-1.16-.93-2.35-1.31-3.53a.92.92,0,0,1,.59-1.16.93.93,0,0,1,1.16.6c.36,1.13.78,2.26,1.25,3.37a.91.91,0,0,1-.84,1.28Zm-2.24-7a.93.93,0,0,1-.9-.73,34.84,34.84,0,0,1-.6-3.73.92.92,0,0,1,.82-1,.86.86,0,0,1,.39,0,.89.89,0,0,1,.67-.46,22,22,0,0,0,3.44-.76.92.92,0,0,1,.55,1.76,24.68,24.68,0,0,1-3.74.83.88.88,0,0,1-.23,0c.12,1,.29,2,.5,2.94a.91.91,0,0,1-.71,1.09A.63.63,0,0,1,122.25,159.51Zm-3.17-3.82h0a28.75,28.75,0,0,1-3.79-.31.92.92,0,0,1,.27-1.82,25.21,25.21,0,0,0,3.54.29.92.92,0,0,1,0,1.84Zm-7.26-1.08a.73.73,0,0,1-.25,0A29.33,29.33,0,0,1,108,153.3a.92.92,0,0,1,.73-1.69,26.82,26.82,0,0,0,3.36,1.19.93.93,0,0,1,.63,1.14A.94.94,0,0,1,111.82,154.61Zm17.93-1.33a.92.92,0,0,1-.42-1.73,15.2,15.2,0,0,0,2.88-1.92.93.93,0,0,1,1.3.09.92.92,0,0,1-.1,1.3,16.1,16.1,0,0,1-3.23,2.16A.94.94,0,0,1,129.75,153.28Zm-8.25-1.08h0a.93.93,0,0,1-.91-.94,31.26,31.26,0,0,1,.29-3.78.92.92,0,1,1,1.82.26,29.49,29.49,0,0,0-.27,3.55A.93.93,0,0,1,121.5,152.2Zm-16.44-.47a1,1,0,0,1-.46-.12,32.07,32.07,0,0,1-3.16-2.1.9.9,0,0,1-.18-1.28.92.92,0,0,1,1.29-.19,28.3,28.3,0,0,0,3,2,.92.92,0,0,1-.46,1.72Zm30.12-3.28a.93.93,0,0,1-.46-.12.92.92,0,0,1-.33-1.26,8.72,8.72,0,0,0,.66-1.43,6,6,0,0,0,.34-1.64.91.91,0,0,1,1-.85.92.92,0,0,1,.85,1,8.24,8.24,0,0,1-.44,2.12A10.59,10.59,0,0,1,136,148,.93.93,0,0,1,135.18,148.45Zm-36-1.14a.93.93,0,0,1-.64-.26l-.61-.62c-.67-.69-1.32-1.42-1.94-2.18a.92.92,0,1,1,1.43-1.16c.58.72,1.2,1.41,1.83,2.06l.57.58a.91.91,0,0,1,0,1.3A.94.94,0,0,1,99.2,147.31Zm23.36-2.38a.84.84,0,0,1-.27,0,.92.92,0,0,1-.61-1.15,14.82,14.82,0,0,1,1.59-3.57.92.92,0,1,1,1.56,1,12.91,12.91,0,0,0-1.39,3.13A.91.91,0,0,1,122.56,144.93Zm-28-3.32a.91.91,0,0,1-.77-.42,37,37,0,0,1-1.89-3.26.92.92,0,0,1,1.64-.84,34.76,34.76,0,0,0,1.79,3.1.92.92,0,0,1-.77,1.42Zm41.17-.23a.92.92,0,0,1-.85-.57,5.33,5.33,0,0,0-1.91-2.43.92.92,0,0,1,1-1.53,7.16,7.16,0,0,1,2.58,3.26.91.91,0,0,1-.49,1.2A.92.92,0,0,1,135.73,141.38Zm-9.17-2.46a.93.93,0,0,1-.76-.4.92.92,0,0,1,.24-1.28,8.15,8.15,0,0,1,3.86-1.41.92.92,0,1,1,.16,1.83,6.26,6.26,0,0,0-3,1.11A1,1,0,0,1,126.56,138.92Zm-35.37-3.84a.92.92,0,0,1-.85-.58c-.46-1.15-.88-2.34-1.24-3.55a.92.92,0,1,1,1.76-.53c.35,1.15.75,2.3,1.19,3.4a.93.93,0,0,1-.52,1.19A.8.8,0,0,1,91.19,135.08Zm-2.13-7a.92.92,0,0,1-.9-.73c-.26-1.21-.47-2.45-.64-3.7a.92.92,0,0,1,1.82-.24c.16,1.2.37,2.39.62,3.56a.92.92,0,0,1-.71,1.09Zm-1-7.29a.93.93,0,0,1-.92-.87c0-1-.08-2-.08-3v-.77a.94.94,0,0,1,.94-.9.9.9,0,0,1,.9.93v.74c0,1,0,1.92.08,2.87a.93.93,0,0,1-.86,1Z" style="fill:#263238"></path><polygon points="97.26 87.3 91.76 111.2 31.7 98.31 97.26 87.3" style="fill:#B0BEC5"></polygon><polygon points="97.26 87.3 91.76 111.2 31.7 98.31 97.26 87.3" style="opacity:0.30000000000000004"></polygon><path d="M31.7,98.31l74.78-2,17.57,27.08Z" style="fill:#B0BEC5"></path><polygon points="31.7 98.31 97.26 87.3 81.81 69.38 31.7 98.31" style="fill:#B0BEC5"></polygon></g><g id="freepik--Clouds--inject-49"><path d="M360.06,45.63l7.24,4.12V47.19c0-.18,0-.37,0-.54s0-.35,0-.52v-.06h0c.26-3.4,2.83-4.7,6-2.89a11.72,11.72,0,0,1,3.57,3.43c.71-4.61,4.47-6.28,9-3.65C390.91,45.87,395,53,395,58.8v5.49a2.52,2.52,0,0,0,1.24,2.15l4.25,2.49a6.15,6.15,0,0,1,3,5.3,2.54,2.54,0,0,1-3.8,2.19L360.17,53.56a6.91,6.91,0,0,1-3.45-6A2.24,2.24,0,0,1,360.06,45.63Z" style="fill:#e6e6e6"></path><path d="M391.44,91.68l5.35,3V92.83c0-.14,0-.27,0-.4s0-.26,0-.39v0h0c.19-2.51,2.09-3.47,4.41-2.13a8.55,8.55,0,0,1,2.64,2.53c.52-3.41,3.3-4.64,6.67-2.7a15,15,0,0,1,6.76,11.72v4.06a1.85,1.85,0,0,0,.91,1.59l3.15,1.84a4.55,4.55,0,0,1,2.24,3.92,1.87,1.87,0,0,1-2.8,1.62L391.52,97.54A5.1,5.1,0,0,1,389,93.12,1.65,1.65,0,0,1,391.44,91.68Z" style="fill:#e6e6e6"></path></g></svg>